<?xml version="1.0" encoding="utf-8"?>
<!-- Generator: Adobe Illustrator 22.0.1, SVG Export Plug-In . SVG Version: 6.00 Build 0)  -->
<svg version="1.1" id="レイヤー_1" xmlns="http://www.w3.org/2000/svg" xmlns:xlink="http://www.w3.org/1999/xlink" x="0px"
	 y="0px" viewBox="0 0 600 600" style="enable-background:new 0 0 600 600;" xml:space="preserve">
<style type="text/css">
	.st0{fill:#A47F23;}
	.st1{fill:#EAF3E3;}
	.st2{fill:#4A3A25;}
</style>
<rect id="background" class="st0" width="600" height="600"/>
<path id="front" class="st1" d="M287.5,404.4c-18.7,0-37.3-0.4-56,0.1c-23.9,0.6-43.7-17.5-50.4-38.3c-8.1-25.4-7.9-50.5,0.6-75.5
	c5.3-15.6,15.4-28,30.2-35.7c21-10.9,43.8-15.6,67-18.4c20.4-2.4,41-2.3,61.2,1.7c17.2,3.4,33.7,8.9,49,17.9
	c8.8,5.2,17.1,11.1,23.7,18.9c20.3,24.4,29.1,51.8,19.6,83.1c-5.6,18.4-17.2,32.5-34.9,40.9c-6,2.9-12.7,2.4-19.1,3.2
	C348.1,406.4,317.8,405.5,287.5,404.4z"/>
<path id="mouth" class="st2" d="M326.4,297.1c-0.4,5.3-1.6,11.6-6.6,16.8c-4.9,5.2-3.8,8.1,1.7,13.2c8.7,8.1,20,11,30.1,16.2
	c7.1,3.6,10.6,10.8,7.8,17.1c-4,8.7-10.8,11.2-19.2,7.3c-6-2.8-12.5-4.7-18.3-7.9c-8.3-4.5-16.4-9.5-22.8-16.6
	c-2.6-2.9-4.7-2.6-6.6,0.5c-6.4,10.7-16.8,17.3-25.8,25.4c-5,4.5-14.7,3.1-18.5-2c-4.9-6.5-4.1-14.9,1.8-19.7
	c8.8-7.1,17.6-14.1,23.6-24c1.7-2.8,2.1-4.3-0.2-6.7c-7.5-7.8-9.6-17.4-7.7-27.7c2.7-15.4,16.8-25.4,33-24
	C314.7,266.6,326.5,279.5,326.4,297.1z"/>
<path id="right_eye" class="st2" d="M511.2,314.9c-27.7,0.4-47.4-22.5-47-48.5c0.4-25.1,20-48.9,51.6-47.3
	c22.8,1.1,44.6,20.7,44.4,48.4C560,293.7,539.3,316.4,511.2,314.9z"/>
<path id="left_eye" class="st2" d="M92,315c-31,0.5-48.9-22.5-49.4-47.9C42.2,238.3,66,219.5,88.7,219c30.1-0.7,49.6,21.5,49.9,47.5
	C139,294.7,117.5,314.7,92,315z"/>
</svg>
