<svg width="400" height="400" viewBox="0 0 400 400" fill="none" xmlns="http://www.w3.org/2000/svg">
<rect width="400" height="400" fill="#C19629"/>
<path d="M216.5 280L200 269L183.5 280L162 260.5L138.5 276L106 246L133.5 299L171.5 280.5L185.5 292.5L200 306L214.5 292.5L228.5 280.5L266.5 299L294 246L261.5 276L238 260.5L216.5 280Z" fill="#4A3A25" stroke="#4A3A25" stroke-width="12" stroke-linejoin="round"/>
<path d="M226 203.5C226 197.449 214 194 200.5 194C187 194 175 197.449 175 203.5C175 208 176.791 213.081 178 215.5C179 217.5 182.321 221.821 184.5 224C185.775 225.275 189 227.5 191 228.5C193.408 229.704 195.883 230.5 200.5 230.5C205.117 230.5 207.592 229.704 210 228.5C212 227.5 215.225 225.275 216.5 224C218.679 221.821 222 217.5 223 215.5C224.209 213.081 226 208 226 203.5Z" fill="#4A3A25"/>
<path d="M323.68 150.958C319.893 148.475 317.958 147.206 296.397 146.025C274.837 144.946 272.78 146.006 268.755 148.08C264.696 150.171 261.489 154.578 261.049 161.403C260.773 168.236 263.502 172.955 267.32 175.459C271.107 177.942 273.042 179.211 294.603 180.392C316.162 181.471 318.22 180.411 322.245 178.337C326.304 176.246 329.511 171.838 329.951 165.014C330.227 158.181 327.498 153.462 323.68 150.958Z" fill="#4A3A25"/>
<path d="M132.245 148.663C128.219 146.589 126.162 145.529 104.596 146.609C83.0418 147.789 81.1065 149.058 77.3202 151.541C73.5019 154.045 70.7732 158.764 71.049 165.597C71.489 172.422 74.6959 176.829 78.7551 178.92C82.7806 180.994 84.8379 182.054 106.404 180.975C127.958 179.794 129.893 178.525 133.68 176.042C137.498 173.538 140.227 168.819 139.951 161.986C139.511 155.162 136.304 150.754 132.245 148.663Z" fill="#4A3A25"/>
</svg>
