<?xml version="1.0" encoding="utf-8"?>
<!-- Generator: Adobe Illustrator 22.0.1, SVG Export Plug-In . SVG Version: 6.00 Build 0)  -->
<svg version="1.1" id="レイヤー_1" xmlns="http://www.w3.org/2000/svg" xmlns:xlink="http://www.w3.org/1999/xlink" x="0px"
	 y="0px" viewBox="0 0 600 600" style="enable-background:new 0 0 600 600;" xml:space="preserve">
<style type="text/css">
	.st0{fill:#A47F23;}
	.st1{fill:#EAF3E3;}
	.st2{fill:#4A3A25;}
</style>
<rect id="background_x28_rect_x29_" class="st0" width="600" height="600"/>
<g id="face">
	<path id="front" class="st1" d="M288.6,393.7c-15.3,0-30.6-0.3-45.9,0.1c-19.6,0.5-35.9-14.3-41.3-31.4c-6.7-20.8-6.5-41.5,0.5-62
		c4.4-12.8,12.6-23,24.8-29.3c17.2-8.9,35.9-12.8,54.9-15.1c16.8-2,33.6-1.9,50.2,1.4c14.1,2.8,27.6,7.3,40.2,14.7
		c7.2,4.3,14.1,9.1,19.4,15.5c16.6,20,23.9,42.5,16,68.2c-4.6,15.1-14.1,26.7-28.6,33.6c-4.9,2.4-10.4,2-15.7,2.6
		C338.3,395.3,313.4,394.6,288.6,393.7z"/>
	<path id="mouth" class="st2" d="M320.5,305.7c-0.3,4.3-1.3,9.5-5.4,13.8c-4,4.3-3.1,6.6,1.4,10.8c7.2,6.6,16.4,9,24.7,13.3
		c5.8,3,8.7,8.8,6.4,14c-3.3,7.1-8.9,9.2-15.7,6c-5-2.3-10.3-3.9-15-6.4c-6.8-3.7-13.5-7.8-18.7-13.6c-2.2-2.4-3.8-2.2-5.4,0.5
		c-5.3,8.7-13.8,14.2-21.2,20.8c-4.1,3.7-12,2.5-15.2-1.6c-4-5.3-3.4-12.2,1.5-16.1c7.2-5.8,14.4-11.5,19.3-19.7
		c1.4-2.3,1.7-3.6-0.2-5.5c-6.2-6.4-7.9-14.2-6.4-22.7c2.2-12.6,13.8-20.9,27.1-19.7C310.9,280.6,320.6,291.2,320.5,305.7z"/>
	<path id="right_eye" class="st2" d="M472.1,320.3c-22.7,0.3-38.9-18.5-38.6-39.8c0.3-20.6,16.4-40.1,42.4-38.8
		c18.7,0.9,36.6,17,36.4,39.7C512.2,302.8,495.2,321.5,472.1,320.3z"/>
	<path id="left_eye" class="st2" d="M128.2,320.3c-25.5,0.4-40.2-18.4-40.5-39.3c-0.4-23.6,19.1-39,37.8-39.4
		c24.7-0.6,40.7,17.6,41,38.9C166.8,303.7,149.1,320,128.2,320.3z"/>
</g>
</svg>
